<svg xmlns="http://www.w3.org/2000/svg" viewBox="0 0 260 260" width="260" height="260"><g transform="translate(18.68,49.44) skewX(8) skewY(-11)" fill="#000000"><path d="M 0 9 Q 0 0 9 0 L 191 0 Q 200 0 200 9 L 200 25 Q 200 34 191 34 L 103 34 Q 94 34 94 43 L 94 147 Q 94 156 85 156 L 69 156 Q 60 156 60 147 L 60 43 Q 60 34 51 34 L 9 34 Q 0 34 0 25 Z"></path><path d="M 200 191 Q 200 200 191 200 L 9 200 Q 0 200 0 191 L 0 175 Q 0 166 9 166 L 97 166 Q 106 166 106 157 L 106 53 Q 106 44 115 44 L 131 44 Q 140 44 140 53 L 140 157 Q 140 166 149 166 L 191 166 Q 200 166 200 175 Z"></path></g></svg>